<svg version="1.1" id="Layer_1" xmlns="http://www.w3.org/2000/svg" x="0" y="0" viewBox="0 0 101 95" xml:space="preserve"><style type="text/css">.st1{fill:#007f56}</style><path d="M13.6 55.8c0 3.3-2.4 5.6-6 5.6-1.9 0-3-.5-4.5-.7v-3.3c.7 1.2 2.6 2.1 4.6 2.1 2.1 0 3.4-1.4 3.4-3.5 0-4.3-7.4-4.2-7.4-9.9 0-3.4 2.4-5.3 5.7-5.3 1.5 0 2.4.4 3.6.5v3.1c-.5-1.3-2-1.8-3.6-1.8-1.9 0-3.3 1.2-3.3 3.2 0 4.2 7.5 4.2 7.5 10zm13.7 5c-.4.3-.8.5-1.7.5-.9 0-1.6-.5-1.7-1.5-.7 1-1.9 1.5-3.3 1.5-2.7 0-4.3-1.6-4.3-3.7s1.6-3.9 4.5-3.9c1.4 0 2.6.6 3.1 1.3v-1.6c0-2-.9-3.7-3.3-3.7-1.5 0-2.5.6-3.2 1.3v-2.2c.8-.1 1.8-.9 3.7-.9 3.3 0 5 1.8 5 5.7v4.9c0 .9.3 1.1.8 1.1.2 0 .5 0 .6-.1v1.3zm-6.1-1.1c1.5 0 2.7-1 2.7-2.3 0-1.2-1.2-2.2-2.7-2.2-1.8 0-2.7 1-2.7 2.2 0 1.3 1 2.3 2.7 2.3zM30.5 48c.1.4.3 1 .7 1.8l3.1 7.4 2.8-6.9c.5-1.2.7-1.8.8-2.4h2.5c-.5 1-1.1 2-1.5 3.1l-4.5 10.3h-.5l-4.6-10.4c-.4-.9-.9-2-1.5-2.9h2.7zm22.3 12.4c-1 .1-1.9.7-4.3.7-3.8 0-6.6-2.9-6.6-6.7 0-3.9 2.7-6.7 6.1-6.7 4 0 6 3.7 6 6 0 .2 0 .4-.1.5h-9.7c-.1 2.6 1.8 5 4.6 5 1.6 0 2.7-.2 4-1.1v2.3zm-1.1-7.6c-.2-1.5-1.5-3.3-3.6-3.3-1.9 0-3.3 1.4-3.8 3.3h7.4zM32.6 72.1c-.2 0-.4.1-.7.1-.9 0-1.6-.5-1.6-1.9v-3h-.9v-.8h.9v-1.4h1v1.4h1.5v.8h-1.5v2.8c0 .9.4 1.3.9 1.3.2 0 .4 0 .5-.1v.8zm4.9-3.2c0-1-.5-1.6-1.3-1.6-.9 0-1.3.7-1.3 1.6v3.3h-1.1v-8.5h-.6c.1-.1.2-.4.3-.6h1.2v4.4c.3-.6.9-.9 1.7-.9 1.3 0 1.9 1 1.9 2.5v3.2h-1.1V71l.3-2.1zm6.9 3c-.4 0-.8.3-1.9.3-1.6 0-2.8-1.2-2.8-2.9s1.2-2.9 2.6-2.9c1.7 0 2.6 1.6 2.6 2.6v.2h-4.2c0 1.1.8 2.2 2 2.2.7 0 1.2-.1 1.7-.5v1zm-.5-3.3c-.1-.6-.7-1.4-1.5-1.4s-1.4.6-1.6 1.4h3.1zM16.7 86.3c-1.7.5-3.2 1-5.4 1-6 0-10.6-4.6-10.6-10.2s4.6-10.2 10.6-10.2c2.3 0 3.7.5 5.2.9v2.8c-1.4-1.1-3.1-1.6-5.1-1.6-4.6 0-8.3 3.6-8.3 8.1s3.7 8.1 8.3 8.1c2.1 0 3.9-.5 5.2-1.6v2.7zm11.6-6.9c0-2.3-1.1-3.8-3-3.8-2 0-3.1 1.7-3.1 3.8V84c0 .9 0 2.2.1 3h-2.5c.1-.7.1-2.1.1-3V67.2h-1.3c.3-.3.5-1 .8-1.4h2.9c-.1.7-.1 2-.1 3V76c.8-1.4 2.2-2.2 3.9-2.2 3 0 4.5 2.4 4.5 5.7V84c0 .9 0 2.2.1 3h-2.5c.1-.7.1-2.1.1-3v-4.6zm5.2 7.5c.1-.6.1-2 .1-3v-8.5h-1.3c.3-.3.6-.9.8-1.4h2.8c-.1.7-.1 1.9-.1 3v7c0 1.1 0 2.4.1 3h-2.4zm5.7 0c0-.7.1-2 .1-3v-8.5H38c.3-.4.6-1 .8-1.4h2.7v1.9c.6-1.3 1.8-2.2 3.5-2.2 2.1 0 3.2 1.1 3.6 2.5.5-1.4 1.8-2.5 3.8-2.5 2.7 0 4.3 1.8 4.3 5.2V84c0 1 0 2.2.1 3h-2.4c.1-.8.1-2.2.1-3v-4.7c0-2.6-1-3.7-2.7-3.7-1.5 0-2.7 1.3-2.7 3.5V84c0 1.1 0 2.3.1 3h-2.4c.1-.7.1-1.9.1-3v-4.9c0-2.1-.8-3.5-2.7-3.5-1.4 0-2.7 1.2-2.7 3.6V84c0 1 0 2.3.1 3l-2.4-.1zm20.7 7.3c.1-.8.1-2.2.1-3V75.4h-1.3c.3-.4.6-1 .8-1.4h2.8v2.7c1-1.8 2.7-2.9 4.8-2.9 3.6 0 6.3 3 6.3 6.7s-2.8 6.7-6.4 6.7c-2 0-3.8-.9-4.8-2.6v6.8c0 .8 0 2.1.1 3l-2.4-.2zm6.7-8.9c2.5 0 4.5-2.1 4.5-4.8 0-2.6-2-4.8-4.5-4.8s-4.4 2.2-4.4 4.8c-.1 2.6 2 4.8 4.4 4.8zm8.3-1.5c.6 1.1 2.2 1.8 3.5 1.8 1.2 0 2-.7 2-1.8 0-2.6-5.1-2.6-5.1-6.5 0-2 1.5-3.5 4.1-3.5 1.2 0 2.1.4 2.9.5v2.5c-.5-.8-1.9-1.4-2.8-1.4-1.3 0-1.9.7-1.9 1.7 0 2.5 5.1 2.4 5.1 6.5 0 2.1-1.6 3.7-4.1 3.7-1.5 0-2.8-.6-3.6-.7l-.1-2.8z" fill="#fff"/><path class="st1" d="M70.5 38.3l.2.4c-.1.2-.2.3-.3.5-.2.4-.4.8-.5.9-.1.2-.4.5-.5.7-.1.3-.2.7-.1.9.1.2.2.6.2.7.1.2.2 1.3.4 1.7.1.2.6.5 1.1.3.1.2.2.5.3.6.3.2 1 .1 1.3-.2.2-.3.3-.9.2-1.5 0-.3-.2-.7-.2-.8 0 0 .1-.4.1-.5.5-.2.6-.8 1-1.1 1.4-.4.4.2 2.6-.2.7.2 1.6.6 2 1.1.5.3 1.4 1.6 1.5 2.5.2.3-.7 1.3-.7 1.4-.6-.3-2.5-2.4-2.5-2.4s-2-1.3-2.1-.8c-.6.4.2 1.5.8 2 .6.6 1 1.8 1 1.8s.4 1 .9 1.4c0 .1.4.4.4.4.3.6.5.7.5 1 0 .3-.5 2.6-.1 2.9.2 1.3-5.8 4.3-7.5 5-2.2.9-5.6 2.8-7.4 3.7L60 49.2C57.2 41.6 62 38 62 38s3.5-3.3 7.7-.6c.3.3.6.6.8.9z"/><path class="st1" d="M68.3 5c-17.7-2.4-34 10.1-36.4 27.8-.5 3.9-.3 7.8.5 11.4.8-1.1 1.4-1.9 1.4-1.9s-.2 0-.7.4c0 0 .8-1.5 2.2-3 .7-.8 3.8-3.9 5.2-4.6-.2 0-.8.2-1.3.4.6-.8 1.9-2 2.5-2.4-.2 0-.7-.2-1.4 0 .2-.3 1.4-.9 1.6-1-.1 0-.4 0-1 .1.8-.9 2.3-2 3.4-2.7 1-.7.7-1.7.9-2.7.3-1.9 1-3.1 1.3-3.3-.2 0-.7.2-.9.5.3-1.1 1.1-2.3 1.5-3 .5-.8 2.3-3.4 2.3-3.4h-.6c1.2-1.4 3.5-3.6 5-4.2 2.9-1.5 7.1-1.6 9.1-1.2.7.1 1.2.4 1.8.6.7.4 1.4.8 1.9 1.2.9.6 1.6.7 2.1.8.5 0 1-.1 1.5-.1s1.4.9 1.4 1.6c0 .6-.4 1.1-.6 1.5-.3.6-.1 1.6.9 2.2.5.4 2.1.3 3.7.9.5.2.4 1.4.9 1.9.4.4 2 .9 3.1 1.9 1 .9 1.2 3.2 1.2 4.6.2.2.7.8-.6 1 .5.1 1.6 1 .8 1.3-.6.3-.9.9-1.8 1.6-.9.7.2 1.7-.8 3.4-.1.2-.2.3-.3.4h.5c.4 0 1 .2 1.6.9.6.7 2 3.7 2.6 5.3.6 1.5 1.7 4.3 1.9 7.3.2 3.1-.8 3.8-1.4 5.1-.5.9-1.4 2.3-2.6 3.8-.5.8-1.5 2.8-1.8 3 .2-.7.1-.8.1-.8-.5.8-.9 1.2-1.2 1.7-.8 1.5-2.2 2.7-2.2 2.7s.2-.4.2-.6c-.2.4-1.1 1.3-1.7 1.8.1-.2.2-.4.2-.6-.2.3-1.8 1.7-2.3 2-.4.3.5.1 1.4-.2 11.7-3.6 20.9-13.7 22.7-26.7C98.5 23.8 86.1 7.4 68.3 5z"/>save the chimps</svg>